<svg xmlns="http://www.w3.org/2000/svg" viewBox="0 0 181.67 169.8"><g id="Layer_2" data-name="Layer 2"><g id="Layer_1-2" data-name="Layer 1"><path d="M181.16,3.88l-6.57,134.75a3.21,3.21,0,0,1-2.12,2.87l-1.61.58a3.22,3.22,0,0,1-3.26-.66L114.44,92.64a3.21,3.21,0,0,0-5.36,1.93l-9.74,71.37a3.2,3.2,0,0,1-2.09,2.59l-1.6.58a3.22,3.22,0,0,1-3.47-.86L1.34,68.49A3.22,3.22,0,0,1,2.63,63.3l26.85-9.64a3.22,3.22,0,0,1,3.5.89L72.08,98.9a3.22,3.22,0,0,0,5.6-1.69l8.6-62.13a3.2,3.2,0,0,1,2.1-2.59l2.5-.9a3.22,3.22,0,0,1,3.26.66L140.33,74.7a3.22,3.22,0,0,0,5.39-2.26l1.93-59.09a3.24,3.24,0,0,1,2.13-2.93L176.86.69A3.22,3.22,0,0,1,181.16,3.88Z" style="fill:#edf6f6;stroke:#edf6f6;stroke-linejoin:round"/></g></g></svg>