<svg xmlns="http://www.w3.org/2000/svg" viewBox="0 0 527.77 146.4"><g id="Layer_2" data-name="Layer 2"><g id="Layer_1-2" data-name="Layer 1"><path d="M106.89,39.08a2.43,2.43,0,0,0-2.24-.33l-16,5.76A2.39,2.39,0,0,0,87,46.69l-1.15,35A1.36,1.36,0,0,1,85,82.89a1.38,1.38,0,0,1-1.5-.26L56.23,57.52A2.42,2.42,0,0,0,53.79,57l-1.48.53a2.4,2.4,0,0,0-1.57,1.93L45.66,96.25a1.41,1.41,0,0,1-2.45.73L20.08,70.75a2.4,2.4,0,0,0-2.61-.67L1.59,75.79A2.4,2.4,0,0,0,.07,77.47a2.43,2.43,0,0,0,.56,2.2l53.73,59a2.36,2.36,0,0,0,2.59.64l.94-.34A2.37,2.37,0,0,0,59.46,137l5.76-42.22a1.37,1.37,0,0,1,.91-1.13,1.4,1.4,0,0,1,1.43.29L99,122.84a2.42,2.42,0,0,0,2.44.49l1-.35a2.38,2.38,0,0,0,1.58-2.14l3.89-79.71A2.4,2.4,0,0,0,106.89,39.08Z" style="fill:#edf6f6"/><path d="M193.82,64.2c-1.36-11.34-5.27-19.57-11.64-24.48a28.84,28.84,0,0,0-21.78-5.94c-7.08.85-12.84,3.42-17.11,7.63a35,35,0,0,0-3.84,4.42,1.41,1.41,0,0,1-1.52.56,1.39,1.39,0,0,1-1-1.19L132,4.84a2.4,2.4,0,0,0-2.67-2.1L112,4.82a2.41,2.41,0,0,0-2.1,2.68l13,108.17a2.42,2.42,0,0,0,2.39,2.12l.28,0,17.39-2.08A2.4,2.4,0,0,0,145,113l-4.89-40.8a1.3,1.3,0,0,1,0-.34,22.36,22.36,0,0,1,1.78-5.56,27,27,0,0,1,6-8A17,17,0,0,1,158,53.39c8-1,12.57,3.88,13.88,14.8l4.92,41a2.39,2.39,0,0,0,2.67,2.1l17.38-2.08a2.4,2.4,0,0,0,2.1-2.67Z" style="fill:#edf6f6"/><path d="M277.61,63.6A36.13,36.13,0,0,0,266.27,52a50,50,0,0,0-13.58-5.9,35.13,35.13,0,0,0-26.21,2.79,48.88,48.88,0,0,0-12.1,8.63,35.9,35.9,0,0,0-8.65,13.76,40,40,0,0,0-2,18.12,39.59,39.59,0,0,0,5.77,17.22,35.06,35.06,0,0,0,11.41,11.48,50,50,0,0,0,13.63,5.74,40.16,40.16,0,0,0,9.81,1.27,34,34,0,0,0,3.52-.18,38.27,38.27,0,0,0,12.8-3.86,49.1,49.1,0,0,0,12.05-8.48,35.38,35.38,0,0,0,8.67-13.61,39.75,39.75,0,0,0,2-18A40.18,40.18,0,0,0,277.61,63.6ZM257.47,98.88a16.66,16.66,0,0,1-24.63,2.62c-3.94-3.26-6.27-8.14-7-14.5-.69-6.56.55-12,3.7-16.08A16.71,16.71,0,0,1,241.38,64c4.58-.49,8.89,1,12.83,4.32s6.3,8.4,7,15C261.88,89.61,260.63,94.87,257.47,98.88Z" style="fill:#edf6f6"/><path d="M358.45,81.54a49.75,49.75,0,0,0-11.23-9.65,37.12,37.12,0,0,0-12.4-5,38,38,0,0,0-13.46,0,49.25,49.25,0,0,0-14.11,4.66,36,36,0,0,0-12.33,10.59,40.13,40.13,0,0,0-7.29,16.72,39.55,39.55,0,0,0,.43,18.16,35,35,0,0,0,7.51,14.34,50.27,50.27,0,0,0,11.32,9.51,38.43,38.43,0,0,0,12.41,5,35.09,35.09,0,0,0,6.73.63,42.65,42.65,0,0,0,6.65-.54,48.9,48.9,0,0,0,14-4.53A35.3,35.3,0,0,0,359,130.88a39.69,39.69,0,0,0,7.28-16.64A40.16,40.16,0,0,0,365.85,96,36.17,36.17,0,0,0,358.45,81.54Zm-14.08,28.4c-1.23,6.27-4,10.92-8.19,13.83A16.68,16.68,0,0,1,311.87,119c-2.79-4.28-3.58-9.63-2.35-15.91,1.28-6.47,4.06-11.27,8.29-14.27A17.33,17.33,0,0,1,328,85.35a16.29,16.29,0,0,1,3.17.31c4.52.89,8.21,3.56,11,7.93S345.64,103.47,344.37,109.94Z" style="fill:#edf6f6"/><path d="M428.06,52.21c-4.7-4.07-10.77-6.56-18-7.39a32,32,0,0,0-20.57,4.06,20.37,20.37,0,0,0-10.26,15.89c-.65,5.75.72,10.62,4.07,14.48s8.77,7.64,16.26,11.4l9.07,4.79c3.33,1.61,4.82,3.49,4.56,5.74a4.48,4.48,0,0,1-2.95,3.73,12,12,0,0,1-6.37.86c-6.15-.7-10.4-3.41-12.65-8.07a2.38,2.38,0,0,0-2.59-1.29l-14.9,2.83a2.43,2.43,0,0,0-1.56,1.05,2.38,2.38,0,0,0-.34,1.83,25.2,25.2,0,0,0,9.81,14.8,40,40,0,0,0,20.06,7.91,47.43,47.43,0,0,0,5.17.29,44,44,0,0,0,9.79-1.09,28.94,28.94,0,0,0,13.06-6.83,20.2,20.2,0,0,0,6.64-13.08,20.84,20.84,0,0,0-.59-8.29,26.08,26.08,0,0,0-2.53-6,18.62,18.62,0,0,0-5-4.9c-2.31-1.66-4.11-2.85-5.34-3.55s-3.28-1.74-6.26-3.2l-9.8-4.87c-3.33-1.61-4.81-3.58-4.53-6a3.54,3.54,0,0,1,1.92-2.89,6.75,6.75,0,0,1,4.14-.71c3.69.42,6.61,2.54,8.67,6.3a2.36,2.36,0,0,0,2.42,1.2l15.9-2.22a2.42,2.42,0,0,0,1.93-3.22A32.38,32.38,0,0,0,428.06,52.21Z" style="fill:#edf6f6"/><path d="M523.48,55.31a29,29,0,0,0-18.66-12.72c-7-1.5-13.25-1-18.66,1.64a35,35,0,0,0-5.06,2.91,1.39,1.39,0,0,1-1.61,0,1.35,1.35,0,0,1-.59-1.45l8.5-39.11a2.39,2.39,0,0,0-1.84-2.86L468.45.06a2.38,2.38,0,0,0-2.85,1.83l-23,105.88a2.41,2.41,0,0,0,1.84,2.86l17.11,3.7a2.41,2.41,0,0,0,1.81-.33,2.38,2.38,0,0,0,1-1.51l8.69-40.16a1.21,1.21,0,0,1,.1-.32,22.25,22.25,0,0,1,3.5-4.68A26.91,26.91,0,0,1,485,61.71a17,17,0,0,1,11.12-1.37c7.9,1.71,10.62,7.76,8.29,18.51l-8.73,40.39a2.4,2.4,0,0,0,1.84,2.85l17.12,3.7a2.14,2.14,0,0,0,.5.06,2.4,2.4,0,0,0,2.35-1.9l9-41.7C528.91,71.1,527.89,62,523.48,55.31Z" style="fill:#edf6f6"/></g></g></svg>